<?xml version="1.0" standalone="no"?>
<!DOCTYPE svg PUBLIC "-//W3C//DTD SVG 20010904//EN"
 "http://www.w3.org/TR/2001/REC-SVG-20010904/DTD/svg10.dtd">
<svg version="1.0" xmlns="http://www.w3.org/2000/svg"
 width="945.000000pt" height="945.000000pt" viewBox="0 0 945.000000 945.000000"
 preserveAspectRatio="xMidYMid meet">
<metadata>
Created by potrace 1.11, written by Peter Selinger 2001-2013
</metadata>
<g transform="translate(0.000000,945.000000) scale(0.100000,-0.100000)"
fill="#000000" stroke="none">
<path d="M4430 9324 c-19 -2 -87 -9 -150 -15 -1024 -97 -1975 -511 -2726
-1185 -367 -331 -746 -803 -929 -1159 -30 -59 -58 -112 -63 -118 -45 -57 -233
-488 -298 -685 -68 -206 -143 -523 -178 -757 -38 -254 -49 -414 -43 -655 11
-430 36 -661 103 -962 54 -240 178 -630 208 -653 7 -5 27 -50 44 -100 47 -138
82 -217 172 -385 107 -202 150 -276 223 -385 447 -671 1074 -1223 1805 -1589
62 -31 117 -54 122 -51 6 4 10 14 10 23 0 15 2 15 11 2 9 -12 10 -12 5 3 -3
10 -6 21 -6 23 0 3 -4 3 -8 0 -4 -2 -14 -1 -21 3 -10 7 -11 14 -1 32 11 23 10
23 -4 5 -9 -11 -16 -25 -16 -30 0 -6 -8 3 -19 19 -16 26 -18 66 -3 50 7 -6 42
25 42 38 0 5 -7 4 -15 -3 -20 -16 -19 -3 1 17 8 9 13 22 10 29 -3 7 0 16 6 20
7 4 8 3 4 -4 -4 -7 -2 -12 5 -12 9 0 9 -3 0 -14 -14 -17 -5 -43 16 -43 14 0
14 2 -1 13 -13 9 -14 14 -5 20 7 4 17 0 24 -9 7 -9 16 -13 20 -9 5 4 6 0 2 -9
-6 -18 26 -73 36 -62 4 3 -7 30 -23 60 -33 57 -32 58 30 55 25 -2 25 -1 2 8
-12 5 -28 7 -36 4 -8 -3 -17 0 -22 7 -4 7 -3 10 4 5 6 -3 25 7 42 24 17 16 26
30 21 30 -5 0 -13 -4 -16 -10 -3 -5 -20 -10 -37 -10 -30 0 -30 0 -14 25 15 23
15 24 -1 18 -12 -5 -14 -3 -7 8 15 24 13 39 -4 39 -10 0 -24 5 -32 11 -12 9
-11 10 5 5 15 -5 13 0 -9 18 -19 16 -26 28 -20 37 6 11 5 12 -7 2 -13 -10 -16
-10 -16 2 0 8 3 13 5 10 3 -3 12 1 20 8 13 9 14 9 8 0 -4 -7 -2 -13 3 -13 6 0
11 5 11 11 0 6 7 8 18 4 12 -4 11 -1 -5 15 -13 11 -23 25 -23 30 0 5 -7 7 -15
4 -24 -10 -17 9 12 30 14 11 23 15 20 9 -4 -6 0 -13 8 -17 11 -4 13 2 10 27
-3 18 -3 26 1 20 3 -7 14 -13 25 -13 10 0 19 -5 19 -11 0 -14 34 20 36 37 1 8
-3 17 -8 21 -7 3 -8 1 -4 -5 4 -7 2 -12 -3 -12 -13 0 -13 2 -1 35 8 20 15 26
30 22 11 -3 18 -1 14 4 -3 5 -11 9 -18 9 -8 0 -19 7 -26 15 -9 10 -9 15 -1 15
6 0 11 -4 11 -10 0 -5 7 -10 16 -10 21 0 7 19 -23 31 -24 9 -24 31 0 25 7 -1
8 -1 4 2 -5 2 -1 13 9 23 9 10 13 19 7 19 -5 0 -10 7 -10 15 0 11 4 12 14 3 7
-6 16 -8 20 -4 3 3 1 6 -5 6 -7 0 -12 5 -12 11 0 6 7 9 15 6 8 -4 17 -2 20 3
3 5 -5 11 -17 13 -24 5 8 8 89 10 34 1 40 4 38 19 -2 10 2 18 8 18 13 0 -12
20 -26 20 -9 0 -5 -23 6 -31 5 -3 2 -9 -6 -12 -11 -4 -15 0 -12 14 2 11 -2 22
-11 26 -12 4 -12 8 3 20 10 8 13 12 6 9 -21 -11 -73 -14 -67 -4 3 5 12 7 20 4
8 -3 14 -2 14 2 0 4 12 9 28 11 42 4 67 8 70 11 1 1 8 3 15 4 6 1 11 10 9 20
-2 12 1 16 9 10 7 -4 10 -3 6 3 -3 5 -20 8 -37 5 -27 -4 -29 -6 -18 -21 11
-14 11 -14 -3 -3 -10 7 -15 21 -12 32 5 17 0 19 -42 16 -33 -3 -48 0 -52 10
-6 17 15 46 28 38 5 -3 9 0 9 6 0 6 4 9 9 6 13 -8 42 4 35 15 -2 5 0 18 7 30
9 17 8 20 -3 16 -7 -2 -12 -9 -11 -14 1 -5 -4 -10 -12 -10 -8 0 -12 4 -10 8 3
4 -3 10 -13 14 -16 6 -16 7 1 20 15 11 23 11 43 0 29 -15 85 0 77 21 -2 6 0
15 6 19 6 3 11 -1 11 -10 0 -14 3 -13 20 3 12 11 18 27 15 40 -2 13 0 20 6 17
5 -4 6 -11 3 -17 -5 -8 -1 -9 10 -5 10 4 22 7 27 7 5 0 9 4 9 10 0 5 -6 7 -14
4 -8 -3 -17 -1 -21 5 -3 7 3 11 15 11 17 0 20 4 15 18 -8 19 -9 32 -4 47 2 6
1 10 -2 10 -3 0 -13 6 -23 14 -15 13 -15 15 -1 32 9 9 30 23 46 29 16 7 27 16
24 20 -3 4 7 11 20 14 14 4 24 10 21 14 -6 10 56 9 72 -1 7 -5 12 -5 11 0 -3
20 2 23 17 9 21 -21 31 -20 39 3 6 19 7 19 25 3 15 -12 17 -18 7 -25 -7 -5 8
-6 37 -3 28 3 53 11 56 17 4 6 11 5 19 -5 11 -13 16 -13 48 0 19 8 38 13 40
10 3 -3 14 -1 24 4 9 6 19 6 21 1 2 -5 17 -11 33 -13 17 -3 24 -3 17 -1 -7 3
-10 8 -7 13 3 5 12 7 20 3 8 -3 15 0 15 7 0 6 5 8 10 5 6 -4 34 -1 62 5 34 9
46 15 37 21 -8 4 -18 4 -23 -1 -12 -12 -36 -1 -30 15 3 7 13 12 22 10 9 -1 27
2 40 6 14 6 31 5 43 -1 15 -9 21 -7 25 5 3 8 13 15 21 15 8 0 11 -4 8 -10 -7
-11 9 -13 42 -4 13 4 20 11 16 17 -4 6 -1 7 8 1 8 -5 19 -9 24 -9 6 -1 9 -6 8
-12 -3 -12 15 -12 34 0 16 10 13 -26 -4 -42 -7 -6 -13 -8 -13 -2 0 15 -30 22
-48 11 -15 -8 -14 -9 6 -10 32 0 27 -20 -5 -20 -38 0 -61 -15 -37 -24 10 -4
21 -1 26 6 6 10 8 10 8 -2 0 -9 3 -11 8 -5 9 13 129 18 137 5 3 -5 12 -7 20
-4 10 4 13 0 10 -15 -3 -18 -1 -20 15 -11 15 8 17 7 13 -10 -6 -23 6 -26 27
-7 12 10 12 9 1 -5 -8 -11 -27 -18 -47 -18 -19 0 -34 -5 -34 -11 0 -6 6 -9 13
-6 14 5 39 -17 30 -27 -4 -3 1 -6 10 -6 11 0 14 5 11 15 -5 11 -2 13 10 9 9
-3 13 -11 9 -18 -3 -6 -1 -6 8 2 20 19 31 14 23 -10 -6 -21 -6 -21 10 -5 21
21 33 23 17 3 -10 -12 -6 -15 19 -21 17 -4 29 -9 26 -12 -5 -6 18 -33 28 -33
3 0 6 7 6 15 0 27 31 13 43 -18 4 -10 11 -16 16 -13 5 4 12 0 14 -6 4 -10 6
-10 6 1 1 11 6 10 25 -3 17 -11 27 -12 32 -5 4 6 0 15 -7 20 -8 5 -10 9 -5 9
5 0 18 -8 29 -18 19 -16 20 -16 14 0 -9 24 8 31 28 12 15 -15 18 -15 35 4 14
14 26 18 42 14 23 -7 23 -7 1 -10 -12 -2 -24 -10 -27 -17 -6 -17 10 -30 19
-15 4 6 11 8 16 5 5 -4 9 -1 9 4 0 6 5 11 11 11 5 0 8 -4 5 -8 -7 -12 58 -9
67 3 5 6 13 3 22 -9 8 -11 15 -15 15 -8 0 6 11 14 25 18 14 3 23 10 20 14 -3
4 2 10 10 14 8 3 17 1 20 -4 4 -6 18 -7 32 -4 18 5 24 3 19 -5 -9 -15 7 -14
22 1 7 7 12 8 12 4 0 -5 7 -3 15 4 13 10 15 9 15 -9 0 -11 3 -21 6 -21 12 0
79 34 86 44 5 7 8 7 8 -1 0 -7 7 -10 17 -6 11 4 14 3 9 -5 -5 -9 0 -9 19 -2
35 13 38 13 31 -6 -3 -8 -2 -12 4 -9 6 3 10 1 10 -5 0 -6 5 -8 11 -4 8 4 8 8
0 13 -6 4 -2 12 10 20 12 7 18 8 15 3 -3 -5 8 -12 24 -14 17 -3 30 -2 30 2 0
3 9 6 20 7 13 1 18 -2 14 -10 -4 -7 -3 -8 2 -4 5 5 9 14 9 20 0 5 6 12 14 15
8 3 11 0 8 -5 -3 -5 5 -9 18 -9 15 0 21 5 18 13 -6 16 18 14 29 -2 5 -6 8 -6
8 2 0 17 42 12 58 -7 8 -8 11 -9 7 -2 -3 6 -3 12 2 13 4 0 17 2 27 4 11 2 25
1 30 -3 21 -12 117 -22 110 -10 -3 4 0 8 6 8 6 0 9 4 5 9 -3 5 -1 12 4 16 6 3
8 -3 6 -14 -2 -13 2 -18 13 -16 9 1 23 -2 30 -8 8 -7 12 -5 12 6 0 8 -6 17
-12 20 -7 3 -3 4 9 4 12 -1 19 -6 16 -12 -2 -5 4 -1 14 11 10 11 28 19 40 18
12 0 20 2 18 6 -6 9 40 30 65 30 11 0 25 -9 32 -19 6 -10 17 -17 23 -15 6 3
21 -3 31 -13 11 -10 14 -14 7 -10 -9 7 -10 2 -3 -24 10 -35 19 -48 21 -31 1 7
2 17 3 22 0 6 6 9 11 8 6 -2 9 -7 7 -13 -2 -5 3 -4 10 3 11 11 9 17 -10 32
-13 11 -18 21 -12 25 5 3 10 1 10 -5 0 -6 4 -9 9 -5 5 3 12 1 16 -5 4 -6 11
-7 17 -4 7 4 8 2 4 -5 -4 -6 -12 -9 -17 -6 -5 3 -6 -1 -2 -10 5 -14 10 -11 26
14 14 22 25 30 37 26 10 -3 21 -2 23 3 7 10 -34 10 -50 -1 -9 -6 -11 -3 -7 7
3 9 9 16 13 16 4 0 7 11 7 24 0 14 -4 22 -10 19 -5 -4 -6 -1 -1 7 6 9 4 11 -5
5 -9 -5 -11 -4 -6 4 10 16 36 -4 36 -28 0 -13 4 -11 18 6 17 22 44 25 59 8 5
-4 1 -5 -7 0 -8 5 -12 4 -7 0 10 -11 66 -14 73 -4 2 4 -4 6 -15 4 -13 -2 -18
1 -16 13 1 9 -4 28 -13 42 -15 24 -14 24 2 11 15 -13 19 -13 27 0 7 11 9 11 9
0 0 -8 7 -11 20 -8 11 3 18 1 15 -3 -3 -5 -1 -11 5 -15 5 -3 10 -1 10 5 0 6 5
8 10 5 6 -4 7 -11 4 -17 -5 -7 -2 -8 5 -4 9 6 8 13 -5 27 -16 18 -16 19 2 19
11 0 25 -5 31 -11 13 -13 36 -3 28 12 -4 5 -2 9 3 9 17 0 22 -13 10 -27 -8
-10 -8 -17 0 -25 9 -9 12 -7 13 8 0 11 3 14 6 6 4 -10 8 -9 17 4 12 15 14 15
29 -1 10 -9 15 -20 12 -25 -7 -11 22 -7 32 5 4 4 3 5 -4 1 -17 -9 -28 14 -12
25 12 7 11 9 -1 9 -13 0 -13 1 0 10 8 5 24 10 34 10 19 0 19 -1 1 -20 -18 -20
-18 -21 0 -14 12 5 16 4 11 -4 -5 -8 -1 -10 11 -5 16 6 16 5 4 -10 -7 -9 -17
-15 -21 -12 -5 3 -11 1 -14 -4 -8 -13 15 -8 42 9 12 8 23 24 23 35 1 16 2 16
6 3 3 -13 13 -16 41 -12 35 4 36 4 9 -7 -15 -6 -25 -15 -21 -20 3 -5 13 -5 25
1 10 6 19 8 19 4 0 -3 11 1 25 10 14 9 31 14 38 10 7 -4 9 -4 5 1 -4 4 -2 15
5 24 11 14 10 14 -6 2 -9 -8 -21 -11 -25 -7 -10 11 27 36 44 29 10 -4 11 -10
4 -24 -13 -24 19 -45 41 -26 7 7 4 0 -9 -14 -25 -29 -28 -39 -8 -39 7 0 16 10
20 23 6 22 6 22 30 -6 14 -16 26 -23 28 -16 5 14 72 18 76 4 2 -5 8 -15 13
-21 6 -8 -3 -22 -28 -43 -20 -17 -31 -31 -25 -31 18 0 74 59 67 71 -9 13 14
41 27 33 6 -4 5 -10 -3 -15 -8 -4 -14 -16 -14 -26 0 -10 -4 -24 -8 -30 -6 -9
-3 -11 8 -7 8 4 21 2 28 -4 18 -14 49 -12 37 3 -8 9 -4 12 15 10 14 -2 25 1
25 7 0 6 -6 8 -14 5 -8 -3 -20 0 -26 8 -10 11 -7 13 14 9 14 -2 26 0 26 5 0 5
9 11 19 14 15 3 21 -2 27 -22 4 -14 6 -30 5 -35 -1 -4 3 -14 9 -21 8 -9 7 -14
-2 -17 -8 -3 -6 -7 5 -11 19 -7 24 17 6 28 -14 9 21 34 38 28 8 -3 23 3 33 12
12 11 20 13 20 6 0 -6 -7 -14 -16 -18 -13 -5 -13 -8 -2 -15 10 -7 9 -8 -4 -4
-11 3 -18 0 -18 -7 0 -7 -3 -8 -8 -2 -10 14 -32 17 -32 5 0 -5 4 -10 8 -10 4
0 8 -9 8 -20 0 -13 -7 -20 -18 -20 -10 0 -18 -7 -18 -16 0 -8 -4 -12 -10 -9
-5 3 -10 1 -10 -4 0 -6 -9 -11 -20 -11 -11 0 -23 -7 -26 -15 -3 -8 -21 -17
-40 -21 -22 -4 -31 -10 -27 -18 4 -6 -2 -4 -12 4 -11 9 -16 10 -11 3 4 -7 3
-13 -3 -13 -5 0 -17 -8 -27 -18 -10 -9 -22 -17 -28 -18 -36 -2 -53 -16 -54
-45 -1 -26 2 -28 14 -18 8 6 17 9 21 6 3 -4 -2 -9 -11 -13 -9 -3 -16 -10 -16
-16 0 -5 6 -6 13 -2 8 5 8 3 -2 -9 -7 -9 -18 -14 -24 -10 -6 4 -8 -2 -4 -16 4
-18 3 -20 -8 -11 -11 9 -12 7 -9 -8 3 -10 -2 -25 -12 -33 -10 -8 -15 -9 -11
-3 4 8 -2 11 -18 10 -23 -1 -37 -16 -15 -16 6 0 10 -5 10 -11 0 -5 -4 -7 -10
-4 -5 3 -10 1 -10 -4 0 -6 5 -11 11 -11 5 0 7 -4 4 -10 -3 -5 -1 -10 4 -10 10
0 14 12 13 30 0 3 15 6 33 6 29 0 33 -2 24 -17 -5 -10 -14 -21 -19 -24 -17
-11 -11 -23 10 -18 10 3 19 8 18 12 -2 19 3 31 11 27 5 -4 12 0 14 6 3 7 6 3
6 -9 1 -16 -3 -21 -14 -17 -11 5 -13 2 -9 -10 3 -9 10 -16 15 -16 5 0 9 -9 9
-20 0 -11 4 -20 9 -20 9 0 5 -103 -6 -130 -9 -25 -12 -80 -3 -80 4 0 10 11 12
25 3 14 1 25 -4 25 -5 0 -3 10 4 23 7 12 11 26 10 30 -1 5 3 5 9 2 6 -4 9 -18
6 -31 -2 -13 0 -24 4 -24 5 0 9 5 9 10 0 6 3 10 8 10 4 0 7 -15 7 -34 0 -19
-3 -32 -7 -29 -7 4 -13 -29 -9 -50 1 -5 -3 -6 -8 -3 -6 4 -6 18 -1 36 5 17 6
30 2 30 -4 0 0 5 8 10 9 6 10 10 3 10 -17 0 -23 -12 -29 -62 -4 -24 -10 -50
-16 -58 -6 -10 -7 -4 -3 20 6 33 5 34 -10 16 -8 -11 -15 -25 -15 -32 0 -20
-41 -84 -53 -84 -8 0 -7 -3 1 -9 8 -4 13 -11 13 -15 -1 -3 -1 -7 0 -8 6 -22 5
-38 -2 -38 -6 0 -7 -5 -3 -12 4 -7 3 -8 -5 -4 -6 4 -9 12 -6 17 4 5 1 9 -4 9
-6 0 -11 -10 -11 -21 0 -16 -5 -20 -20 -16 -14 3 -20 0 -20 -10 0 -13 -2 -13
-17 -2 -11 9 -9 3 5 -15 30 -39 30 -70 0 -63 -22 6 -22 5 -4 -8 17 -13 17 -15
3 -21 -11 -4 -24 2 -37 17 l-19 24 4 -24 c2 -13 12 -30 22 -37 17 -13 17 -14
-2 -8 -11 4 -30 16 -42 27 -31 28 -29 8 2 -26 14 -15 21 -27 15 -27 -6 0 -8
-6 -5 -12 4 -7 -1 -4 -9 6 -13 17 -18 18 -29 6 -6 -7 -7 -10 -1 -7 6 3 11 0
11 -8 0 -11 -5 -12 -20 -3 -13 6 -17 7 -13 0 3 -6 -2 -13 -11 -15 -16 -4 -16
-5 1 -6 13 -1 17 -7 13 -21 -3 -10 0 -22 7 -25 6 -3 1 -3 -11 -1 -17 3 -22 -2
-25 -25 -3 -16 0 -29 5 -29 6 0 8 -2 6 -4 -2 -2 -22 -1 -45 3 -39 7 -40 7 -42
-22 -1 -16 -9 -36 -17 -44 -8 -8 -15 -19 -15 -25 0 -6 -11 -8 -25 -6 -13 3
-22 1 -19 -3 3 -5 13 -9 22 -10 11 0 12 -2 4 -6 -6 -2 -10 -9 -6 -14 3 -5 0
-9 -7 -9 -10 0 -10 -3 -2 -11 6 -6 9 -19 6 -28 -3 -9 -1 -12 4 -6 4 6 17 12
28 13 11 2 63 22 115 44 1234 522 2171 1522 2592 2768 307 908 313 1910 16
2820 -77 237 -130 365 -246 600 -111 226 -197 375 -301 525 -34 50 -82 119
-107 155 -101 149 -186 251 -369 441 -231 239 -523 495 -719 627 -98 67 -309
194 -489 294 -207 114 -577 267 -797 328 -63 18 -152 43 -197 56 -45 14 -137
36 -204 49 -67 14 -144 32 -173 40 -51 16 -223 37 -431 54 -121 10 -659 21
-715 15z m985 -4007 c110 -46 191 -136 227 -250 26 -83 24 -97 -10 -97 -26 0
-30 5 -45 58 -47 161 -187 262 -365 262 -219 0 -408 -138 -489 -356 -46 -125
-43 -316 7 -414 96 -188 354 -259 570 -157 84 39 186 140 224 220 25 53 29 57
54 51 15 -4 29 -8 31 -10 2 -2 -11 -34 -30 -71 -47 -93 -152 -197 -243 -241
-164 -79 -330 -82 -483 -7 -152 75 -235 222 -234 420 0 387 292 662 662 623
36 -3 92 -17 124 -31z m-3209 4 c59 -26 127 -90 148 -141 8 -20 18 -64 22 -98
l7 -62 -35 0 -35 0 -6 60 c-7 78 -44 133 -116 173 -45 26 -68 31 -137 35 -182
10 -305 -79 -306 -222 -1 -96 47 -147 190 -206 201 -82 260 -121 293 -195 23
-50 24 -125 3 -195 -51 -171 -302 -261 -543 -194 -131 37 -211 137 -211 266 0
37 1 38 35 38 34 0 35 -1 35 -42 1 -91 66 -172 165 -205 31 -10 82 -16 135
-16 199 0 318 85 327 232 7 108 -43 157 -241 237 -206 82 -259 138 -259 272 0
131 76 229 210 273 83 27 247 22 319 -10z m5434 -3 c104 -49 154 -121 166
-237 l7 -61 -37 0 c-36 0 -36 0 -36 43 0 67 -40 141 -97 177 -61 39 -102 50
-184 50 -167 0 -280 -90 -281 -224 -1 -101 39 -141 214 -215 160 -68 190 -84
230 -129 47 -52 62 -99 56 -183 -6 -78 -35 -136 -96 -191 -79 -71 -242 -110
-381 -90 -184 26 -291 130 -291 284 l0 48 35 0 35 0 0 -47 c1 -140 116 -226
301 -225 189 1 306 80 325 219 5 42 2 60 -16 98 -27 56 -75 89 -200 140 -118
47 -166 71 -207 102 -96 74 -102 254 -11 357 77 88 158 117 313 113 84 -2 109
-7 155 -29z m-4361 -4 c126 -35 191 -119 191 -244 0 -97 -23 -155 -89 -221
-94 -93 -129 -102 -409 -107 -228 -4 -232 -4 -237 -25 -3 -12 -27 -116 -54
-232 l-47 -210 -32 -3 c-18 -2 -32 1 -32 8 0 11 212 942 231 1013 l10 37 206
0 c158 0 220 -4 262 -16z m984 -491 c55 -280 101 -518 104 -530 5 -21 1 -23
-31 -23 -20 0 -36 1 -36 3 0 2 -11 61 -25 132 -14 72 -25 131 -25 133 0 1
-136 1 -302 0 l-302 -3 -85 -132 -85 -133 -39 0 c-21 0 -37 4 -35 9 2 4 156
243 343 529 l340 522 40 0 40 0 98 -507z m2557 500 c0 -5 -3 -18 -6 -30 l-6
-23 -309 0 c-177 0 -310 -4 -314 -9 -7 -12 -95 -388 -95 -407 0 -12 51 -14
290 -14 160 0 290 -3 290 -7 0 -5 -3 -18 -6 -30 l-6 -23 -293 0 c-271 0 -294
-1 -299 -17 -6 -21 -96 -413 -96 -419 0 -2 140 -4 310 -4 329 0 317 2 304 -47
l-6 -23 -344 0 c-264 0 -344 3 -344 12 0 12 227 1011 235 1036 3 9 82 12 350
12 190 0 345 -3 345 -7z m-210 -2943 c0 -5 -10 -14 -22 -20 -21 -10 -21 -10
-6 3 10 8 15 17 11 20 -3 4 -1 7 5 7 7 0 12 -4 12 -10z m-54 -34 c-2 -16 -36
-51 -36 -37 0 5 8 15 18 20 9 6 13 11 9 11 -5 0 -5 5 -2 10 9 14 14 12 11 -4z
m-2556 -96 c0 -5 -7 -10 -16 -10 -8 0 -12 -4 -9 -10 3 -5 -2 -10 -12 -10 -16
1 -15 3 6 20 26 23 31 24 31 10z m-210 -27 c3 -3 -14 -4 -37 -1 -24 2 -43 1
-43 -2 0 -3 -23 -3 -51 -1 -64 4 -58 10 22 20 56 6 90 1 109 -16z m276 0 c-3
-3 -12 0 -21 7 -12 10 -15 10 -15 0 0 -8 -3 -11 -6 -7 -14 14 7 27 27 16 12
-6 18 -13 15 -16z m-409 -19 c-3 -3 -12 -4 -19 -1 -8 3 -5 6 6 6 11 1 17 -2
13 -5z m256 -11 c-7 -2 -19 -2 -25 0 -7 3 -2 5 12 5 14 0 19 -2 13 -5z m2637
-33 c0 -5 -5 -10 -11 -10 -5 0 -7 5 -4 10 3 6 8 10 11 10 2 0 4 -4 4 -10z
m-467 -20 c3 -11 0 -23 -5 -27 -7 -3 -8 -1 -4 5 14 23 -11 12 -51 -23 -23 -20
-44 -31 -47 -26 -4 5 4 17 16 26 20 13 21 17 8 25 -12 8 -10 10 10 10 20 0 22
2 10 10 -11 8 -8 9 11 4 15 -3 30 -1 33 5 10 15 13 14 19 -9z m437 10 c0 -5
-2 -10 -4 -10 -3 0 -8 5 -11 10 -3 6 -1 10 4 10 6 0 11 -4 11 -10z m-549 -23
c-8 -8 -16 -7 -27 5 -14 14 -14 15 11 10 19 -3 23 -8 16 -15z m523 13 c3 -3
-6 -7 -19 -8 -13 -1 -26 2 -29 6 -5 9 39 10 48 2z m121 0 c10 8 15 8 21 -1 4
-7 2 -15 -5 -17 -8 -3 -6 -8 6 -18 16 -12 14 -12 -16 -4 -42 12 -43 13 -34 36
4 11 8 13 11 6 3 -10 7 -10 17 -2z m-2899 -19 c-3 -3 -17 -6 -33 -5 -40 3 -42
5 -8 13 32 8 48 5 41 -8z m2673 6 c8 -10 7 -14 -4 -14 -8 0 -15 6 -15 14 0 7
2 13 4 13 2 0 9 -6 15 -13z m-2908 -15 c-7 -2 -18 1 -23 6 -8 8 -4 9 13 5 13
-4 18 -8 10 -11z m97 5 c9 -10 3 -13 -26 -14 -20 0 -27 1 -14 4 12 2 22 9 22
14 0 12 6 11 18 -4z m39 7 c-3 -3 -12 -4 -19 -1 -8 3 -5 6 6 6 11 1 17 -2 13
-5z m503 -15 c13 -9 13 -10 -2 -6 -9 3 -19 1 -22 -6 -2 -7 -5 -4 -5 6 -1 20 7
21 29 6z m1785 1 c3 -5 12 -10 18 -10 7 0 6 4 -3 10 -8 5 -10 10 -4 10 15 0
37 -27 27 -32 -7 -4 -19 -4 -49 0 -6 1 -11 9 -11 17 0 17 13 20 22 5z m822
-12 c-3 -8 -6 -5 -6 6 -1 11 2 17 5 13 3 -3 4 -12 1 -19z m-673 -2 c-6 -15 33
-29 42 -15 3 5 12 9 19 9 12 0 12 -4 -2 -19 -15 -19 -18 -19 -47 -4 -41 21
-43 23 -26 33 20 13 20 12 14 -4z m-222 -41 c2 3 5 -2 5 -10 0 -9 -9 -14 -23
-13 -12 1 -20 6 -18 10 3 4 1 8 -5 8 -6 0 -8 7 -4 15 5 14 7 14 23 0 9 -8 19
-13 22 -10z m1177 -10 c-6 -6 -13 -5 -19 5 -7 10 -10 11 -10 3 0 -7 -5 -13
-11 -13 -8 0 -9 4 0 13 6 8 8 17 5 20 -4 4 5 1 19 -6 17 -8 23 -15 16 -22z
m-2759 15 c0 -5 -4 -10 -10 -10 -5 0 -10 5 -10 10 0 6 5 10 10 10 6 0 10 -4
10 -10z m1645 -8 c-3 -3 -11 0 -18 7 -9 10 -8 11 6 5 10 -3 15 -9 12 -12z m44
-9 c-6 -7 -15 -10 -20 -7 -13 8 -3 21 15 21 12 0 13 -4 5 -14z m119 -27 c-2
-1 -12 -8 -22 -16 -11 -8 -17 -10 -13 -4 4 7 0 17 -9 24 -12 11 -12 15 -2 21
7 5 20 1 30 -8 10 -9 17 -17 16 -17z m1102 -21 c0 -7 -33 -1 -47 8 -9 6 -13 1
-13 -14 0 -19 -15 -20 -15 -1 0 4 -4 13 -9 21 -6 9 -5 12 2 7 6 -3 16 2 22 13
10 19 11 19 35 -5 14 -14 25 -27 25 -29z m-1 38 c-6 -7 -15 -10 -20 -7 -13 8
-3 21 15 21 12 0 13 -4 5 -14z m-1176 -8 c-3 -9 -8 -14 -10 -11 -3 3 -2 9 2
15 9 16 15 13 8 -4z m-453 -65 c0 -5 -10 -10 -22 -10 -19 0 -20 2 -8 10 19 13
30 13 30 0z m1675 -10 c3 -6 -1 -7 -9 -4 -18 7 -21 14 -7 14 6 0 13 -4 16 -10z
m-1868 -6 c-3 -3 -12 -4 -19 -1 -8 3 -5 6 6 6 11 1 17 -2 13 -5z m-569 -24
c-7 -11 -17 -20 -22 -20 -4 0 -3 6 3 13 6 8 8 17 4 20 -3 4 1 7 10 7 15 0 15
-3 5 -20z m-58 -9 c0 -5 -7 -11 -15 -15 -15 -5 -20 5 -8 17 9 10 23 9 23 -2z
m-1575 -11 c3 -5 1 -10 -4 -10 -6 0 -11 5 -11 10 0 6 2 10 4 10 3 0 8 -4 11
-10z m4000 -70 c-3 -5 -12 -10 -18 -10 -7 0 -6 4 3 10 19 12 23 12 15 0z
m-287 -94 c-7 -8 -17 -12 -22 -9 -4 3 -2 9 5 14 22 13 31 11 17 -5z m261 -103
c-13 -35 -11 -38 10 -19 17 16 18 16 14 -8 -3 -14 -14 -28 -24 -31 -10 -4 -19
-11 -19 -17 0 -5 -6 -8 -14 -5 -8 3 -17 3 -21 -1 -9 -9 -55 -10 -50 -1 3 4 -1
9 -9 12 -17 7 -28 -17 -15 -30 6 -6 4 -10 -5 -10 -8 0 -13 8 -11 19 5 26 15
39 25 33 4 -3 11 2 14 11 3 9 11 12 18 8 7 -4 10 -4 6 1 -4 4 -3 16 3 27 8 14
14 17 23 9 7 -6 16 -8 19 -4 4 3 7 2 7 -3 0 -5 -14 -19 -31 -30 -24 -17 -27
-23 -14 -28 10 -3 18 1 22 12 4 9 12 21 20 25 7 4 13 18 13 31 0 13 6 23 14
23 11 0 12 -6 5 -24z m-165 -104 c-2 -4 7 -16 21 -27 13 -11 22 -22 18 -26 -3
-3 -12 2 -19 12 -13 16 -13 16 -14 -1 0 -11 -5 -15 -11 -11 -6 3 -9 14 -6 24
3 12 -2 20 -15 23 -15 4 -17 3 -8 -8 7 -8 10 -20 8 -26 -5 -15 -38 -21 -38 -8
0 6 -4 7 -10 4 -22 -14 -8 21 17 42 20 18 29 20 35 11 5 -9 8 -7 8 7 0 16 2
17 9 5 6 -8 8 -17 5 -21z m-64 11 c0 -5 -5 -10 -11 -10 -5 0 -7 5 -4 10 3 6 8
10 11 10 2 0 4 -4 4 -10z m20 -114 c-5 -15 -8 -32 -4 -37 3 -5 0 -9 -6 -9 -11
0 -6 51 7 73 11 18 13 -2 3 -27z m40 9 c0 -8 -4 -15 -10 -15 -5 0 -7 7 -4 15
4 8 8 15 10 15 2 0 4 -7 4 -15z m-4150 -69 c0 -11 -19 -15 -25 -6 -3 5 1 10 9
10 9 0 16 -2 16 -4z m4035 -273 c-9 -37 -18 -20 -9 19 4 18 9 27 11 20 3 -7 2
-24 -2 -39z m-70 -133 c10 -11 16 -20 13 -20 -3 0 -13 9 -23 20 -10 11 -16 20
-13 20 3 0 13 -9 23 -20z m-4078 -196 c-9 -10 -27 15 -21 31 7 17 8 16 16 -5
5 -13 7 -24 5 -26z m42 -118 c0 -12 -3 -16 -5 -9 -3 7 -12 9 -20 6 -9 -3 -12
0 -9 9 9 22 35 18 34 -6z m3775 -67 c-3 -5 -15 -9 -27 -8 -20 1 -20 2 3 9 18
6 20 8 7 9 -10 1 -15 6 -12 11 5 8 11 7 21 -1 7 -6 11 -15 8 -20z m-4 -29 c12
-8 10 -9 -7 -7 -12 2 -26 6 -29 10 -11 11 19 8 36 -3z"/>
<path d="M2855 5239 c-4 -19 -27 -119 -51 -223 -24 -104 -44 -195 -44 -203 0
-13 29 -15 213 -11 234 6 273 14 341 70 104 85 115 280 20 344 -64 44 -84 48
-280 52 l-192 4 -7 -33z"/>
<path d="M4034 5134 c-42 -66 -135 -208 -205 -316 -71 -108 -129 -199 -129
-202 0 -4 119 -6 265 -6 242 0 265 1 265 17 0 21 -111 617 -115 622 -2 2 -39
-50 -81 -115z"/>
<path d="M3945 2120 c-3 -6 1 -7 9 -4 18 7 21 14 7 14 -6 0 -13 -4 -16 -10z"/>
<path d="M6297 2075 c6 -30 28 -51 38 -35 9 14 -4 32 -17 24 -6 -4 -8 -2 -5 3
4 6 1 16 -7 22 -11 9 -12 6 -9 -14z"/>
<path d="M6194 2063 c2 -10 8 -19 14 -19 7 -1 17 -2 23 -3 5 0 7 -7 3 -13 -5
-8 -1 -7 10 2 17 13 17 14 -1 21 -10 4 -13 8 -8 8 13 2 -16 21 -32 21 -6 0
-10 -8 -9 -17z"/>
<path d="M3888 2063 c7 -3 16 -2 19 1 4 3 -2 6 -13 5 -11 0 -14 -3 -6 -6z"/>
<path d="M6690 2055 c-20 -24 -6 -28 15 -5 10 11 13 20 8 20 -6 0 -16 -7 -23
-15z"/>
<path d="M6395 2050 c-3 -5 -1 -10 5 -10 6 0 8 -5 4 -12 -4 -7 -3 -8 4 -4 6 4
9 13 5 21 -6 18 -10 19 -18 5z"/>
<path d="M6105 2020 c-10 -17 5 -33 19 -21 16 14 26 4 19 -17 -5 -14 -3 -15 7
-5 11 10 10 16 -5 33 -20 22 -31 25 -40 10z"/>
<path d="M6693 2008 c-11 -19 -13 -39 -1 -32 5 3 7 9 4 12 -3 3 -1 11 5 19 6
7 9 13 6 13 -3 0 -9 -6 -14 -12z"/>
<path d="M6850 2010 c0 -6 7 -10 15 -10 8 0 15 2 15 4 0 2 -7 6 -15 10 -8 3
-15 1 -15 -4z"/>
<path d="M6800 2001 c0 -5 9 -7 20 -4 11 3 20 7 20 9 0 2 -9 4 -20 4 -11 0
-20 -4 -20 -9z"/>
<path d="M5830 1945 c-9 -10 -9 -15 -1 -15 6 0 11 4 11 9 0 5 8 12 18 14 14 4
14 5 1 6 -9 0 -22 -6 -29 -14z"/>
<path d="M7020 1945 c0 -7 30 -13 34 -7 3 4 -4 9 -15 9 -10 1 -19 0 -19 -2z"/>
<path d="M5856 1919 c-18 -14 -26 -16 -29 -7 -3 8 -6 6 -6 -4 -1 -16 10 -23
32 -19 4 0 7 -4 7 -10 0 -6 -9 -8 -22 -3 -22 6 -22 6 2 -15 l25 -22 -25 12
c-24 11 -24 11 -8 -7 17 -17 19 -17 43 6 19 18 22 26 13 37 -6 7 -8 16 -4 20
3 3 6 0 6 -8 1 -11 2 -11 9 1 16 27 16 33 -1 36 -10 1 -29 -6 -42 -17z"/>
<path d="M4942 1870 c0 -14 2 -19 5 -12 2 6 2 18 0 25 -3 6 -5 1 -5 -13z"/>
<path d="M5040 1879 c0 -5 5 -7 10 -4 6 3 10 8 10 11 0 2 -4 4 -10 4 -5 0 -10
-5 -10 -11z"/>
<path d="M4900 1859 c0 -5 5 -7 10 -4 6 3 10 8 10 11 0 2 -4 4 -10 4 -5 0 -10
-5 -10 -11z"/>
<path d="M5810 1814 c0 -1 6 -7 14 -13 10 -9 15 -8 19 2 3 8 -3 13 -14 13 -11
0 -19 -1 -19 -2z"/>
<path d="M2940 1770 c-12 -7 -10 -9 7 -7 12 0 19 5 17 9 -6 10 -6 10 -24 -2z"/>
<path d="M6790 1686 c0 -9 5 -16 10 -16 6 0 10 4 10 9 0 6 -4 13 -10 16 -5 3
-10 -1 -10 -9z"/>
<path d="M6770 1540 c-6 -11 -8 -20 -6 -20 3 0 10 9 16 20 6 11 8 20 6 20 -3
0 -10 -9 -16 -20z"/>
<path d="M2820 1262 c0 -5 7 -9 15 -9 8 0 12 4 9 9 -3 4 -9 8 -15 8 -5 0 -9
-4 -9 -8z"/>
<path d="M6750 1139 c0 -5 5 -7 10 -4 6 3 10 8 10 11 0 2 -4 4 -10 4 -5 0 -10
-5 -10 -11z"/>
<path d="M6711 1074 c0 -11 3 -14 6 -6 3 7 2 16 -1 19 -3 4 -6 -2 -5 -13z"/>
<path d="M2726 1054 c-11 -8 -16 -14 -10 -14 13 0 39 18 34 24 -3 2 -14 -2
-24 -10z"/>
<path d="M6723 1025 c0 -8 6 -16 14 -19 11 -4 11 -1 3 14 -13 24 -17 25 -17 5z"/>
<path d="M6526 775 c4 -8 8 -15 10 -15 2 0 4 7 4 15 0 8 -4 15 -10 15 -5 0 -7
-7 -4 -15z"/>
<path d="M6528 723 c7 -3 16 -2 19 1 4 3 -2 6 -13 5 -11 0 -14 -3 -6 -6z"/>
<path d="M6518 693 c7 -3 16 -2 19 1 4 3 -2 6 -13 5 -11 0 -14 -3 -6 -6z"/>
<path d="M2830 666 c0 -3 7 -23 15 -43 11 -25 12 -40 5 -48 -8 -9 -6 -14 4
-18 23 -9 25 2 7 54 -16 45 -31 72 -31 55z"/>
<path d="M6367 488 c-4 -14 -2 -16 13 -8 28 15 33 29 11 27 -11 0 -22 -9 -24
-19z"/>
<path d="M6258 493 c7 -3 16 -2 19 1 4 3 -2 6 -13 5 -11 0 -14 -3 -6 -6z"/>
<path d="M6290 486 c0 -7 7 -19 15 -26 12 -10 15 -9 15 8 0 11 -7 22 -15 26
-9 3 -15 0 -15 -8z"/>
</g>
</svg>
